<mxfile host="app.diagrams.net" agent="Mozilla/5.0 (Macintosh; Intel Mac OS X 10_15_7) AppleWebKit/537.36 (KHTML, like Gecko) Chrome/131.0.0.0 Safari/537.36 OPR/116.0.0.0" version="26.0.16">
  <diagram name="Сторінка-1" id="jrV9beEKb0NytZCr6bjh">
    <mxGraphModel>
      <root>
        <mxCell id="0" />
        <mxCell id="1" parent="0" />
        <mxCell id="2" value="End" style="whiteSpace=wrap;strokeWidth=2;" vertex="1" parent="1">
          <mxGeometry x="1072" y="10" width="329" height="277" as="geometry" />
        </mxCell>
        <mxCell id="3" value="Decision" style="whiteSpace=wrap;strokeWidth=2;" vertex="1" parent="1">
          <mxGeometry x="456" y="8" width="540" height="136" as="geometry" />
        </mxCell>
        <mxCell id="4" value="Process" style="whiteSpace=wrap;strokeWidth=2;" vertex="1" parent="1">
          <mxGeometry x="196" y="164" width="612" height="243" as="geometry" />
        </mxCell>
        <mxCell id="5" value="Start" style="whiteSpace=wrap;strokeWidth=2;" vertex="1" parent="1">
          <mxGeometry x="8" y="427" width="1394" height="165" as="geometry" />
        </mxCell>
        <mxCell id="6" value="Step A1" style="whiteSpace=wrap;strokeWidth=2;" vertex="1" parent="1">
          <mxGeometry x="33" y="462" width="113" height="54" as="geometry" />
        </mxCell>
        <mxCell id="7" value="Step A2" style="whiteSpace=wrap;strokeWidth=2;" vertex="1" parent="1">
          <mxGeometry x="1098" y="462" width="113" height="54" as="geometry" />
        </mxCell>
        <mxCell id="8" value="Step A3" style="whiteSpace=wrap;strokeWidth=2;" vertex="1" parent="1">
          <mxGeometry x="1262" y="493" width="113" height="54" as="geometry" />
        </mxCell>
        <mxCell id="9" value="Step B1" style="rhombus;strokeWidth=2;whiteSpace=wrap;" vertex="1" parent="1">
          <mxGeometry x="221" y="231" width="108" height="108" as="geometry" />
        </mxCell>
        <mxCell id="10" value="Step B2" style="ellipse;aspect=fixed;strokeWidth=2;whiteSpace=wrap;" vertex="1" parent="1">
          <mxGeometry x="692" y="303" width="69" height="69" as="geometry" />
        </mxCell>
        <mxCell id="11" value="Step B3" style="whiteSpace=wrap;strokeWidth=2;" vertex="1" parent="1">
          <mxGeometry x="669" y="199" width="114" height="54" as="geometry" />
        </mxCell>
        <mxCell id="12" value="Decision C1" style="rounded=1;arcSize=20;strokeWidth=2" vertex="1" parent="1">
          <mxGeometry x="481" y="49" width="112" height="54" as="geometry" />
        </mxCell>
        <mxCell id="13" value="Decision C2" style="rounded=1;arcSize=20;strokeWidth=2" vertex="1" parent="1">
          <mxGeometry x="858" y="55" width="112" height="54" as="geometry" />
        </mxCell>
        <mxCell id="14" value="Step D1" style="whiteSpace=wrap;strokeWidth=2;" vertex="1" parent="1">
          <mxGeometry x="1097" y="45" width="115" height="54" as="geometry" />
        </mxCell>
        <mxCell id="15" value="Step D2" style="whiteSpace=wrap;strokeWidth=2;" vertex="1" parent="1">
          <mxGeometry x="1262" y="127" width="115" height="54" as="geometry" />
        </mxCell>
        <mxCell id="16" value="" style="curved=1;startArrow=none;endArrow=block;exitX=1;exitY=0.22;entryX=0.29;entryY=1;" edge="1" parent="1" source="6" target="9">
          <mxGeometry relative="1" as="geometry">
            <Array as="points">
              <mxPoint x="171" y="468" />
              <mxPoint x="196" y="468" />
            </Array>
          </mxGeometry>
        </mxCell>
        <mxCell id="17" value="" style="curved=1;startArrow=none;endArrow=block;exitX=1;exitY=0.5;entryX=0.4;entryY=1;" edge="1" parent="1" source="9" target="12">
          <mxGeometry relative="1" as="geometry">
            <Array as="points">
              <mxPoint x="456" y="285" />
            </Array>
          </mxGeometry>
        </mxCell>
        <mxCell id="18" value="Yes" style="curved=1;startArrow=none;endArrow=block;exitX=1;exitY=0.26;entryX=0.33;entryY=0;" edge="1" parent="1" source="12" target="10">
          <mxGeometry relative="1" as="geometry">
            <Array as="points">
              <mxPoint x="631" y="55" />
            </Array>
          </mxGeometry>
        </mxCell>
        <mxCell id="19" value="" style="curved=1;startArrow=none;endArrow=block;exitX=1;exitY=0.22;entryX=0;entryY=0.76;" edge="1" parent="1" source="10" target="13">
          <mxGeometry relative="1" as="geometry">
            <Array as="points">
              <mxPoint x="808" y="291" />
              <mxPoint x="833" y="103" />
            </Array>
          </mxGeometry>
        </mxCell>
        <mxCell id="20" value="No" style="curved=1;startArrow=none;endArrow=block;exitX=1;exitY=0.73;entryX=0.33;entryY=0;" edge="1" parent="1" source="12" target="11">
          <mxGeometry relative="1" as="geometry">
            <Array as="points">
              <mxPoint x="631" y="97" />
            </Array>
          </mxGeometry>
        </mxCell>
        <mxCell id="21" value="" style="curved=1;startArrow=none;endArrow=block;exitX=1;exitY=0.35;entryX=0;entryY=0.15;" edge="1" parent="1" source="11" target="13">
          <mxGeometry relative="1" as="geometry">
            <Array as="points">
              <mxPoint x="808" y="215" />
              <mxPoint x="833" y="55" />
            </Array>
          </mxGeometry>
        </mxCell>
        <mxCell id="22" value="Yes" style="curved=1;startArrow=none;endArrow=block;exitX=1;exitY=0.37;entryX=0;entryY=0.5;" edge="1" parent="1" source="13" target="14">
          <mxGeometry relative="1" as="geometry">
            <Array as="points">
              <mxPoint x="995" y="72" />
            </Array>
          </mxGeometry>
        </mxCell>
        <mxCell id="23" value="No" style="curved=1;startArrow=none;endArrow=block;exitX=1;exitY=0.76;entryX=0;entryY=0.49;" edge="1" parent="1" source="13" target="7">
          <mxGeometry relative="1" as="geometry">
            <Array as="points">
              <mxPoint x="995" y="103" />
              <mxPoint x="1034" y="489" />
            </Array>
          </mxGeometry>
        </mxCell>
        <mxCell id="24" value="" style="curved=1;startArrow=none;endArrow=block;exitX=1;exitY=0.49;entryX=0;entryY=0.1;" edge="1" parent="1" source="7" target="8">
          <mxGeometry relative="1" as="geometry">
            <Array as="points">
              <mxPoint x="1237" y="489" />
            </Array>
          </mxGeometry>
        </mxCell>
        <mxCell id="25" value="" style="curved=1;startArrow=none;endArrow=block;exitX=0;exitY=0.89;entryX=1;entryY=0.65;" edge="1" parent="1" source="8" target="10">
          <mxGeometry relative="1" as="geometry">
            <Array as="points">
              <mxPoint x="1237" y="551" />
              <mxPoint x="833" y="551" />
              <mxPoint x="808" y="362" />
            </Array>
          </mxGeometry>
        </mxCell>
        <mxCell id="26" value="Category2" style="curved=1;startArrow=none;endArrow=block;exitX=0.23;exitY=1;entryX=1;entryY=0.82;" edge="1" parent="1" source="10" target="6">
          <mxGeometry relative="1" as="geometry">
            <Array as="points">
              <mxPoint x="631" y="514" />
              <mxPoint x="171" y="514" />
            </Array>
          </mxGeometry>
        </mxCell>
        <mxCell id="27" value="" style="curved=1;startArrow=none;endArrow=block;exitX=1;exitY=0.62;entryX=0.26;entryY=1;" edge="1" parent="1" source="11" target="15">
          <mxGeometry relative="1" as="geometry">
            <Array as="points">
              <mxPoint x="808" y="236" />
              <mxPoint x="1237" y="236" />
            </Array>
          </mxGeometry>
        </mxCell>
        <mxCell id="28" value="" style="curved=1;startArrow=none;endArrow=block;" edge="1" parent="1" source="5" target="6">
          <mxGeometry relative="1" as="geometry">
            <Array as="points" />
          </mxGeometry>
        </mxCell>
        <mxCell id="29" value="" style="curved=1;startArrow=none;endArrow=block;" edge="1" parent="1" source="14" target="2">
          <mxGeometry relative="1" as="geometry">
            <Array as="points" />
          </mxGeometry>
        </mxCell>
        <mxCell id="30" value="" style="curved=1;startArrow=none;endArrow=block;" edge="1" parent="1" source="15" target="2">
          <mxGeometry relative="1" as="geometry">
            <Array as="points" />
          </mxGeometry>
        </mxCell>
      </root>
    </mxGraphModel>
  </diagram>
</mxfile>
